<?xml version="1.0" encoding="utf-8" ?>
<svg baseProfile="full" height="200mm" version="1.1" viewBox="0,0,200,200" width="200mm" xmlns="http://www.w3.org/2000/svg" xmlns:ev="http://www.w3.org/2001/xml-events" xmlns:xlink="http://www.w3.org/1999/xlink"><defs /><rect fill="#1a1a1a" height="200" width="200" x="0" y="0" /><text alignment-baseline="middle" fill="#e1ed5e" style="dominant-baseline: central; font-size:9.0px; font-family:Arial;" text-anchor="middle" x="100.0" y="100.0">2018</text><line stroke="#e1ed5e" stroke-width="0.3" x1="100.0" x2="100.0" y1="15.0" y2="10.0" /><path d="M 100.0 14.0 a86.0,86.0 0 0,1 42.46469731375804,11.215312516191453" fill="none" id="id13" stroke="none" /><text fill="#e1ed5e" style="font-size:6.75px; font-family:Arial;" text-anchor="middle"><textPath startOffset="22.20632615414155" xlink:href="#id13">January</textPath></text><path d="M 106.0581310904928 79.89281104454417 l 3.606145970315654 -11.968948400585747 a33.500400576585854,33.500400576585854 0 0,0 0.5507061094803679,0.17110706891552993 l -3.8116374525067407 11.905101196787697" fill="#ff3905" stroke="none" /><path d="M 108.09893153111575 80.62456947434976 l 4.931338207376206 -11.797457537258534 a33.786637590036975,33.786637590036975 0 0,0 0.5346594495629318,0.22891327356478933 l -5.133681414729454 11.710824735730954" fill="#ff3e05" stroke="none" /><line stroke="#e1ed5e" stroke-width="0.3" x1="143.23703022742887" x2="145.7803849466894" y1="26.81831364943548" y2="22.513508569990506" /><path d="M 143.74570117128098 25.957352633546492 a86.0,86.0 0 0,1 28.547481713284135,27.462654790039103" fill="none" id="id14" stroke="none" /><text fill="#e1ed5e" style="font-size:6.75px; font-family:Arial;" text-anchor="middle"><textPath startOffset="19.985693538727396" xlink:href="#id14">February</textPath></text><line stroke="#e1ed5e" stroke-width="0.3" x1="172.23445277983987" x2="176.4835382374775" y1="55.19839476539836" y2="52.563006222186495" /><path d="M 173.08426987136738 54.67131705675599 a86.0,86.0 0 0,1 12.851231095245387,41.99856678651699" fill="none" id="id15" stroke="none" /><text fill="#e1ed5e" style="font-size:6.75px; font-family:Arial;" text-anchor="middle"><textPath startOffset="22.20632615414155" xlink:href="#id15">March</textPath></text><line stroke="#e1ed5e" stroke-width="0.3" x1="184.98032266829074" x2="189.97916517819016" y1="98.17113171792111" y2="98.06355123074" /><path d="M 185.9800911702706 98.14961562048488 a86.0,86.0 0 0,1 -9.607161424134198,41.387399972396054" fill="none" id="id16" stroke="none" /><text fill="#e1ed5e" style="font-size:6.75px; font-family:Arial;" text-anchor="middle"><textPath startOffset="21.466115282336823" xlink:href="#id16">April</textPath></text><line stroke="#e1ed5e" stroke-width="0.3" x1="174.80103733775053" x2="179.2010983576182" y1="140.37084112569926" y2="142.7455964860345" /><path d="M 175.68104954172406 140.8457921977663 a86.0,86.0 0 0,1 -30.038265399797805,32.042727171017184" fill="none" id="id17" stroke="none" /><text fill="#e1ed5e" style="font-size:6.75px; font-family:Arial;" text-anchor="middle"><textPath startOffset="22.206326154141568" xlink:href="#id17">May</textPath></text><path d="M 118.48025628344425 109.97397251340804 l 19.843642914902826 10.709805424962315 a43.54928150462283,43.54928150462283 0 0,0 -0.3617153355163467,0.6566184012836563 l -19.65635116993497 -11.049794344643777" fill="#ffd313" stroke="none" /><path d="M 117.75023020441432 111.22182372390056 l 17.598560023048737 11.125936739909017 a41.82056154923076,41.82056154923076 0 0,0 -0.38991726486571965,0.6051602539984118 l -17.404437894805966 -11.427218593828881" fill="#ffba11" stroke="none" /><path d="M 117.14729908036423 112.12312394758627 l 19.89359549535578 14.064752870002376 a45.36334162275528,45.36334162275528 0 0,0 -0.45626925886165853,0.6337180941217309 l -19.648546444118516 -14.405104569575238" fill="#ffed16" stroke="none" /><path d="M 115.56566222782051 114.09645910891815 l 18.399364435705994 16.66269539977861 a45.823014112386225,45.823014112386225 0 0,0 -0.5345005668234157,0.5800948001427907 l -18.109817460886855 -16.976941454722734" fill="#fff417" stroke="none" /><path d="M 115.07121518719521 114.62390073753431 l 18.49132221829641 17.942498814288026 a46.76552466148496,46.76552466148496 0 0,0 -0.5655496862847932,0.5728988463404127 l -18.179731906956082 -18.258138154609103" fill="#fdff18" stroke="none" /><path d="M 114.0293411484842 115.62618273729858 l 20.430146943237137 22.755538275536065 a51.58112859806924,51.58112859806924 0 0,0 -0.6657837786769223,0.5874767753297974 l -20.035420811653626 -23.10383819263815" fill="#bcff1f" stroke="none" /><path d="M 112.92097659922987 116.55440617244103 l 19.604233777794583 25.117021624854797 a52.86205827183557,52.86205827183557 0 0,0 -0.7221240890901189,0.5536939585634665 l -19.16898096021097 -25.450754925245633" fill="#abff21" stroke="none" /><path d="M 112.34349029814194 116.9893568818739 l 18.24812038964054 25.11638298688262 a52.04555672070613,52.04555672070613 0 0,0 -0.7293135737997446,0.5203458704297338 l -17.813079487991914 -25.426773119156575" fill="#b6ff1f" stroke="none" /><line stroke="#e1ed5e" stroke-width="0.3" x1="143.8653032363475" x2="146.44561519142675" y1="172.8068346515853" y2="177.08958963109032" /><path d="M 144.38136562736335 173.6633856474863 a86.0,86.0 0 0,1 -40.68145358897372,12.25698825130547" fill="none" id="id18" stroke="none" /><text fill="#e1ed5e" style="font-size:6.75px; font-family:Arial;" text-anchor="middle"><textPath startOffset="21.466115282336833" xlink:href="#id18">June</textPath></text><path d="M 110.8373102113329 117.98757091392108 l 20.517717403850607 34.05493518194339 a60.758210947056455,60.758210947056455 0 0,0 -0.9004717783599543,0.5320145987534418 l -19.92847775446227 -34.40306835299058" fill="#4bff2c" stroke="none" /><path d="M 109.2508944713604 118.85261126421891 l 13.818168773815318 28.16036493364078 a52.367944488880205,52.367944488880205 0 0,0 -0.8126690338949089,0.3901305220854162 l -13.331387071920176 -28.394049732225756" fill="#b2ff20" stroke="none" /><path d="M 108.2653958097858 119.30500536409082 l 12.741375477493019 29.75929133940318 a53.3721804962523,53.3721804962523 0 0,0 -0.8476735935406239,0.3543276308483448 l -12.227230424454934 -29.9742040132715" fill="#a5ff21" stroke="none" /><path d="M 106.91757812671514 119.82793768551818 l 12.994673959397844 37.24679082633171 a60.44851046835052,60.44851046835052 0 0,0 -0.9853978443893936,0.3343004501072272 l -12.351606382071223 -37.46495426333706" fill="#4fff2b" stroke="none" /><path d="M 106.2309692047433 120.05430185196036 l 11.734265736117676 37.76659767537948 a60.54755229264896,60.54755229264896 0 0,0 -0.9979534802320796,0.30067519725669883 l -11.08243728144535 -37.962988241741904" fill="#4eff2c" stroke="none" /><path d="M 105.53697534728816 120.25689768951611 l 10.40726977059591 38.07475846418712 a60.47148966259252,60.47148966259252 0 0,0 -1.0064458845000868,0.2658115055407707 l -9.750333443284326 -38.24826131903147" fill="#4eff2b" stroke="none" /><path d="M 104.13013068566511 120.58985236759428 l 7.968933527609648 39.72735425301245 a61.51871885328814,61.51871885328814 0 0,0 -1.0400541668083596,0.19932885641860187 l -7.283911746229584 -39.858640307779524" fill="#42ff2d" stroke="none" /><path d="M 103.06178313531738 120.77559828337769 l 2.5836286401962636 17.531101443140898 a38.72045864982448,38.72045864982448 0 0,0 -0.6602232942207014,0.09150093261063118 l -2.2814767547887316 -17.572976941244132" fill="#ff8b0c" stroke="none" /><path d="M 102.34483914955558 120.86867818915974 l 4.819751686814815 42.894987881305724 a64.16491621282172,64.16491621282172 0 0,0 -1.0986482053173035,0.11387937858262916 l -4.080670884891909 -42.971596628344116" fill="#31ff3c" stroke="none" /><path d="M 101.62511606390274 120.93702456842531 l 3.0235947212867695 38.95418817811351 a60.07135653716763,60.07135653716763 0 0,0 -1.0316175322775567,0.0711463849634207 l -2.3526144282302823 -39.00046290759322" fill="#53ff2b" stroke="none" /><line stroke="#e1ed5e" stroke-width="0.3" x1="102.19456741930631" x2="102.32365962044197" y1="184.97166512339345" y2="189.96999836594603" /><path d="M 102.22038585953345 185.97133177190398 a86.0,86.0 0 0,1 -42.740103519485714,-10.115201625700543" fill="none" id="id19" stroke="none" /><text fill="#e1ed5e" style="font-size:6.75px; font-family:Arial;" text-anchor="middle"><textPath startOffset="22.20632615414155" xlink:href="#id19">July</textPath></text><path d="M 100.18074693466247 120.99922214144158 l 0.3378685889524147 39.253653553111384 a60.25510759698787,60.25510759698787 0 0,0 -1.0372310472297133,0.0 l 0.33786858895238764 -39.253653553111384" fill="#51ff2b" stroke="none" /><path d="M 99.09653310690486 120.98055641714683 l -2.7104006792854114 62.94166925144049 a84.0,84.0 0 0,0 -1.4440477263460443,-0.07464077295119242 l 3.793436474044945 -62.885688671727095" fill="#4dd2ff" stroke="none" /><path d="M 98.73552117531835 120.96189622390904 l -0.5446763807916338 9.029372059783686 a30.04578532543165,30.04578532543165 0 0,0 -0.5159823366663145,-0.03558516292151385 l 0.7000214782368785 -9.018658552345887" fill="#ff0000" stroke="none" /><path d="M 97.65516085044442 120.86867818915974 l -4.46036861138929 39.696538320658036 a60.946339541852126,60.946339541852126 0 0,0 -1.041522377474737,-0.12611385528174116 l 5.143018411915417 -39.61387893665095" fill="#49ff2c" stroke="none" /><line stroke="#e1ed5e" stroke-width="0.3" x1="58.666819895761336" x2="56.23545636021788" y1="174.27360380694188" y2="178.64263932499728" /><path d="M 58.180547188652646 175.14741091055294 a86.0,86.0 0 0,1 -31.652253787137756,-30.449443065178592" fill="none" id="id20" stroke="none" /><text fill="#e1ed5e" style="font-size:6.75px; font-family:Arial;" text-anchor="middle"><textPath startOffset="22.20632615414155" xlink:href="#id20">August</textPath></text><path d="M 88.24862548938628 117.40417183066458 l -21.608786769550004 32.00332332611522 a59.61544211280961,59.61544211280961 0 0,0 -0.8455261430220457,-0.5815605910895564 l 22.15646979719494 -31.626621945660567" fill="#58ff2a" stroke="none" /><path d="M 82.05923443525364 110.91462005526583 l -20.97749447373076 12.762074230662677 a45.55454770636896,45.55454770636896 0 0,0 -0.4017892111493704,-0.6734218287585924 l 21.194064560578365 -12.399090308017973" fill="#fff016" stroke="none" /><line stroke="#e1ed5e" stroke-width="0.3" x1="26.63291911575756" x2="22.317208475507996" y1="142.92168965132927" y2="145.44649492493687" /><path d="M 25.769776987707644 143.4266507060508 a86.0,86.0 0 0,1 -11.730757126820373,-40.83630448921669" fill="none" id="id21" stroke="none" /><text fill="#e1ed5e" style="font-size:6.75px; font-family:Arial;" text-anchor="middle"><textPath startOffset="21.46611528233685" xlink:href="#id21">September</textPath></text><line stroke="#e1ed5e" stroke-width="0.3" x1="15.007084014347285" x2="10.007500721073583" y1="101.09737516637583" y2="101.16192664675087" /><path d="M 14.007167355692545 101.11028546245083 a86.0,86.0 0 0,1 10.666146001902534,-42.60595125391555" fill="none" id="id22" stroke="none" /><text fill="#e1ed5e" style="font-size:6.75px; font-family:Arial;" text-anchor="middle"><textPath startOffset="22.20632615414155" xlink:href="#id22">October</textPath></text><line stroke="#e1ed5e" stroke-width="0.3" x1="26.266209847984243" x2="21.928928074336255" y1="57.711370442889674" y2="55.22380399835377" /><path d="M 25.398753493254645 57.213857153982495 a86.0,86.0 0 0,1 29.58750427330803,-30.492523968695096" fill="none" id="id23" stroke="none" /><text fill="#e1ed5e" style="font-size:6.75px; font-family:Arial;" text-anchor="middle"><textPath startOffset="21.46611528233685" xlink:href="#id23">November</textPath></text><line stroke="#e1ed5e" stroke-width="0.3" x1="56.762969772571076" x2="54.21961505331055" y1="26.818313649435495" y2="22.513508569990535" /><path d="M 56.25429882871897 25.957352633546506 a86.0,86.0 0 0,1 42.265352541879196,-11.944610805530505" fill="none" id="id24" stroke="none" /><text fill="#e1ed5e" style="font-size:6.75px; font-family:Arial;" text-anchor="middle"><textPath startOffset="22.20632615414155" xlink:href="#id24">December</textPath></text><path d="M 98.19473922651362 79.07773832637324 l -2.243135991947813 -25.99706307384435 a47.09365722821953,47.09365722821953 0 0,0 0.8082388611360829,-0.06273489112123208 l 1.7953069414493956 26.031823227154042" fill="#f9ff18" stroke="none" /><path d="M 99.63851952072746 79.00311137660856 l -0.6843076219752804 -39.748566649209586 a60.75445670095555,60.75445670095555 0 0,0 1.0457881012478063,-0.009001428354526464 l 9.737033630133452e-15 39.75445670095555" fill="#4bff2c" stroke="none" /></svg>